<?xml version="1.0" standalone="no"?>
<!DOCTYPE svg PUBLIC "-//W3C//DTD SVG 20010904//EN"
 "http://www.w3.org/TR/2001/REC-SVG-20010904/DTD/svg10.dtd">
<svg version="1.0" xmlns="http://www.w3.org/2000/svg"
 width="512.000000pt" height="512.000000pt" viewBox="0 0 512.000000 512.000000"
 preserveAspectRatio="xMidYMid meet">

<g transform="translate(0.000000,512.000000) scale(0.100000,-0.100000)"
fill="#000000" stroke="none">
<path d="M405 4146 c-93 -40 -122 -160 -60 -242 53 -70 -121 -65 2227 -62
l2117 3 28 21 c100 74 98 201 -6 271 l-34 23 -2121 0 c-1741 -1 -2126 -3
-2151 -14z"/>
<path d="M390 2698 c-56 -39 -75 -73 -75 -136 0 -70 28 -115 89 -143 40 -18
115 -19 2151 -19 l2111 0 44 23 c111 55 119 195 16 271 l-27 21 -2138 3 -2138
2 -33 -22z"/>
<path d="M405 1266 c-126 -55 -121 -242 8 -290 38 -15 237 -16 2158 -14 l2116
3 36 28 c95 72 89 196 -12 264 l-34 23 -2121 0 c-1741 -1 -2126 -3 -2151 -14z"/>
</g>
</svg>
